<svg xmlns="http://www.w3.org/2000/svg" viewBox="0 0 80 70">
  <path fill="#fbf0df" d="M71.09 20.74c-.16-.17-.33-.34-.5-.5s-.33-.34-.5-.5c-4.78-4.78-12.54-5.55-17.87-1.63-2.66-1.63-6.04-1.91-9.22-1.91s-6.56.28-9.21 1.91c-5.33-3.91-13.09-3.15-17.87 1.63-.17.16-.34.33-.5.5s-.34.33-.5.5C10.12 25.52 9.37 33.3 13.3 38.64c-1.63 2.66-1.91 6.04-1.91 9.21s.28 6.56 1.91 9.22c-3.92 5.33-3.16 13.09 1.63 17.87.16.17.33.34.5.5s.33.34.5.5c4.78 4.78 12.54 5.55 17.87 1.63 2.66 1.63 6.04 1.91 9.21 1.91s6.56-.28 9.22-1.91c5.33 3.91 13.09 3.15 17.87-1.63.17-.16.34-.33.5-.5s.34-.33.5-.5c4.78-4.78 5.55-12.54 1.63-17.87 1.63-2.66 1.91-6.04 1.91-9.22s-.28-6.55-1.91-9.21c3.92-5.34 3.15-13.1-1.64-17.9z"/>
  <path fill="#f6dece" d="M68.38 48.24c.54-.91.89-1.86 1.08-2.81.24-1.19.26-2.41.22-3.58-.08-2.25-.42-4.81-1.3-6.72a14.86 14.86 0 0 0 1.3-6.72c.04-1.17.01-2.39-.22-3.58-.19-.95-.54-1.9-1.08-2.81-.74-1.24-1.83-2.37-3.19-3.39-.56-.42-1.17-.81-1.81-1.19-.62-.36-1.28-.7-1.96-1.01.13 1.12.19 2.27.19 3.43 0 1.35-.08 2.71-.24 4.04.88 1.13 1.55 2.38 2 3.67.61 1.73.86 3.53.86 5.56s-.25 3.84-.86 5.57c-.44 1.26-1.09 2.49-1.93 3.6.15 1.28.23 2.58.23 3.87 0 4.14-.55 8.09-1.56 11.59 1.47-.84 2.8-1.79 3.91-2.81 1.36-1.24 2.45-2.54 3.19-3.9.54-.91.89-1.87 1.08-2.82.24-1.18.26-2.4.22-3.57-.07-2.17-.4-4.64-1.23-6.55.88-1.92 1.21-4.48 1.28-6.67z"/>
  <path fill="#ccbea7" stroke="#3c3c3c" stroke-width="1.5" d="M65.86 39.58c.55-1.57.86-3.2.86-5.56s-.31-3.99-.86-5.56c-.67-1.91-1.76-3.7-3.24-5.01a9.7 9.7 0 0 0-2.15-1.52c-3.56-1.92-7.95-2.29-11.72-2.29-3.78 0-8.17.37-11.73 2.29-.8.43-1.53.94-2.15 1.52-1.48 1.31-2.57 3.1-3.24 5.01-.55 1.57-.86 3.2-.86 5.56s.31 3.99.86 5.56c.67 1.91 1.76 3.69 3.24 5 .62.55 1.35 1.05 2.15 1.52 3.56 1.93 7.95 2.29 11.73 2.29 3.77 0 8.16-.36 11.72-2.29.8-.47 1.53-.97 2.15-1.52 1.48-1.31 2.57-3.09 3.24-5z"/>
  <ellipse cx="32" cy="35" fill="#3c3c3c" rx="4.5" ry="5.5"/>
  <ellipse cx="51" cy="35" fill="#3c3c3c" rx="4.5" ry="5.5"/>
  <path fill="#e7a69d" d="M37.5 43.5c0 1.38 1.79 2.5 4 2.5s4-1.12 4-2.5-1.79-1.5-4-1.5-4 .12-4 1.5z"/>
  <path fill="none" stroke="#3c3c3c" stroke-linecap="round" stroke-width="1.5" d="M38.5 47c1.04.83 2.35 1.5 3.5 1.5s2.46-.67 3.5-1.5"/>
</svg>
