<svg xmlns="http://www.w3.org/2000/svg" viewBox="0 0 512 512">
  <circle cx="256" cy="256" r="256" fill="#222"/>
  <path fill="#fff" d="M386.2 191.3c5.3 16.8 8.2 34.6 8.2 53.1 0 42.7-14.6 82-39 113.1-17.7 22.5-41.8 40.8-70.1 52.7l-15.6-55.1c47.9-13.6 83-57.5 83-109.7 0-31.2-12.5-59.5-32.7-80.1l26.7-47.1c16.3 20.2 30 43.1 39.5 73.1zM256 149c-59 0-107 48-107 107 0 23.3 7.5 44.9 20.2 62.5l-26.7 47.1c-21.2-26.3-33.9-59.7-33.9-96.2 0-85.5 69.3-154.7 154.7-154.7 34.3 0 66 11.2 91.6 30.1l-26.7 47.1C311.2 178.2 285.1 149 256 149z"/>
  <ellipse cx="339" cy="203" fill="#fff" rx="26" ry="36"/>
</svg>
