<svg xmlns="http://www.w3.org/2000/svg" viewBox="0 0 256 282">
  <defs>
    <linearGradient id="a" x1="68.188%" x2="27.823%" y1="17.487%" y2="89.755%">
      <stop offset="0%" stop-color="#41873F"/>
      <stop offset="32.88%" stop-color="#418B3D"/>
      <stop offset="63.52%" stop-color="#419637"/>
      <stop offset="93.19%" stop-color="#3FA92D"/>
      <stop offset="100%" stop-color="#3FAE2A"/>
    </linearGradient>
    <linearGradient id="b" x1="43.277%" x2="159.245%" y1="55.169%" y2="-18.306%">
      <stop offset="13.76%" stop-color="#41873F"/>
      <stop offset="40.32%" stop-color="#54A044"/>
      <stop offset="71.36%" stop-color="#66B848"/>
      <stop offset="90.81%" stop-color="#6CC04A"/>
    </linearGradient>
    <linearGradient id="c" x1="-4.389%" x2="101.499%" y1="49.997%" y2="49.997%">
      <stop offset="9.192%" stop-color="#6CC04A"/>
      <stop offset="28.64%" stop-color="#66B848"/>
      <stop offset="59.68%" stop-color="#54A044"/>
      <stop offset="86.24%" stop-color="#41873F"/>
    </linearGradient>
  </defs>
  <path fill="url(#a)" d="M116.504 3.58c6.962-3.985 16.03-4.003 22.986 0 34.995 19.774 70.001 39.517 104.99 59.303 6.581 3.707 10.983 11.031 10.916 18.614v118.968c.049 7.897-4.788 15.396-11.731 19.019-34.88 19.665-69.742 39.354-104.616 59.019-7.106 4.063-16.356 3.75-23.24-.646-10.457-6.062-20.932-12.094-31.39-18.15-2.137-1.274-4.546-2.288-6.055-4.36 1.334-1.798 3.719-2.022 5.657-2.807 4.365-1.388 8.374-3.616 12.384-5.778 1.014-.694 2.252-.428 3.224.193 8.942 5.127 17.805 10.403 26.777 15.481 1.914 1.105 3.852-.362 5.488-1.274 34.228-19.345 68.498-38.617 102.72-57.968 1.268-.61 1.969-1.956 1.866-3.345.024-39.245.006-78.497.012-117.742.145-1.576-.767-3.025-2.192-3.727-34.854-19.72-69.72-39.418-104.574-59.139-1.282-.681-2.857-.769-4.149-.106C82.57 59.763 47.517 79.6 12.486 99.412c-1.455.68-2.378 2.164-2.283 3.774-.009 39.245-.003 78.49-.003 117.735-.007 1.467.782 2.89 2.12 3.601 8.26 4.664 16.468 9.42 24.756 14.036 5.346 2.952 11.54 5.164 17.766 4.39 5.373-.586 10.465-3.727 12.932-8.506 1.905-3.483 1.59-7.58 1.66-11.421.006-38.82.003-77.64.003-116.46.019-1.448 1.303-2.706 2.752-2.634 5.244-.037 10.495-.046 15.74.003 1.603-.063 2.83 1.532 2.635 3.08-.004 39.263-.003 78.532.003 117.795.011 7.489-1.125 15.349-5.509 21.634-5.935 8.596-16.47 13.03-26.604 13.794-8.57.638-17.478-.248-25.32-3.835-9.233-4.075-17.193-11.004-24.215-18.312-1.478 1.018-2.863 2.17-4.325 3.213C3.79 239.23.093 243.12 0 247.475c-.003-45.832-.003-91.663 0-137.494C-.094 102.097 4.32 94.774 10.906 91.06c35.211-19.865 70.416-39.737 105.598-59.48z"/>
  <path fill="url(#b)" d="M141.372 89.335c10.745-.692 22.248-.41 31.917 4.884 7.487 4.056 11.637 12.57 11.769 20.887-.209 1.121-1.382 1.74-2.453 1.663-5.147.024-10.294.006-15.442.012-1.282.039-2.159-.992-2.392-2.15-1.163-4.228-3.333-8.547-7.58-10.378-6.194-2.629-13.26-2.209-19.798-1.474-4.755.713-9.899 2.117-13.07 5.934-2.367 2.936-2.263 7.044-1.34 10.473 1.308 3.034 4.648 4.466 7.542 5.544 14.897 4.936 30.964 5.934 45.562 11.882 6.47 2.749 12.669 7.033 15.767 13.483 3.799 7.929 3.322 17.674-.508 25.406-3.321 6.596-9.402 11.328-15.986 14.121-9.725 4.18-20.511 5.01-30.956 4.572-9.449-.32-19.241-1.967-27.369-6.859-6.704-4.086-11.453-10.93-12.738-18.702-.366-1.118.532-2.384 1.71-2.384 5.186-.006 10.373.006 15.559-.006 1.263-.082 2.209.934 2.448 2.09 1.09 4.073 3.017 8.303 6.887 10.477 7.194 3.974 15.856 3.727 23.773 3.235 5.773-.514 12.107-1.636 16.407-5.778 2.924-2.996 3.402-7.502 2.349-11.253-1.196-3.32-4.575-5.248-7.635-6.429-14.459-5.098-30.145-5.254-44.422-10.867-6.253-2.551-12.337-6.539-15.507-12.651-3.925-7.622-3.467-17.219.58-24.61 3.517-6.478 9.678-11.133 16.4-13.699 8.721-3.361 18.218-4.251 27.573-4.428z"/>
  <path fill="url(#c)" d="M186.484 135.901c.199-7.333 3.6-14.594 9.415-19.203 6.296-5.072 14.63-6.793 22.476-6.285 6.705.355 13.621 2.038 19.025 6.079 5.952 4.407 9.652 11.438 10.072 18.69.028 1.257-1.095 2.318-2.334 2.229-5.2.02-10.4-.003-15.6.012-1.22.076-2.164-.853-2.356-2.013-.965-3.455-2.438-7.169-5.705-9.093-4.639-2.772-10.444-2.75-15.478-1.535-3.467.876-6.906 3.022-8.283 6.406-1.437 3.463-1.244 7.664.823 10.814 1.903 2.818 5.158 4.283 8.249 5.286 13.658 4.192 28.403 4.963 41.496 11.037 6.025 2.782 11.652 7.225 14.273 13.429 3.165 7.459 2.755 16.44-1.022 23.593-3.294 6.3-9.152 10.929-15.578 13.738-9.017 3.97-19.062 5.018-28.84 4.67-9.323-.33-18.983-1.966-26.972-6.812-6.873-4.153-11.708-11.218-12.918-19.2-.215-1.14.765-2.237 1.913-2.172h15.677c1.174-.094 2.143.737 2.354 1.857 1.023 4.012 2.883 8.18 6.673 10.32 7.014 4.076 15.746 3.926 23.594 3.38 5.487-.415 11.499-1.515 15.573-5.352 3.086-2.942 3.878-7.58 2.918-11.51-1.023-3.425-4.308-5.637-7.387-6.939-13.935-5.378-29.359-5.072-43.07-11.108-6.069-2.664-11.906-6.9-14.704-13.03-3.3-7.109-3.065-15.773.586-22.634 3.173-6.093 8.934-10.639 15.313-13.219 8.503-3.5 17.889-4.496 27.07-4.28 8.836.261 18.044 1.934 25.533 6.49 6.226 3.777 10.718 10.074 12.191 17.217.235 1.148-.741 2.279-1.9 2.215-5.208-.006-10.416.003-15.625-.003-1.26.058-2.21-.892-2.418-2.09-.949-3.792-2.746-7.682-6.263-9.741-5.457-3.205-12.192-3.073-18.222-2.216-4.17.652-8.645 1.974-11.386 5.328-2.104 2.59-2.498 6.18-1.775 9.333z"/>
</svg>
